<?xml version="1.0" standalone="no"?>
<!DOCTYPE svg PUBLIC "-//W3C//DTD SVG 20010904//EN"
 "http://www.w3.org/TR/2001/REC-SVG-20010904/DTD/svg10.dtd">
<svg version="1.0" xmlns="http://www.w3.org/2000/svg"
 width="73.000000pt" height="73.000000pt" viewBox="0 0 73.000000 73.000000"
 preserveAspectRatio="xMidYMid meet">
<metadata>
Created by potrace 1.11, written by Peter Selinger 2001-2013
</metadata>
<g transform="translate(0.000000,73.000000) scale(0.100000,-0.100000)"
fill="#000000" stroke="none">
<path d="M328 714 c-2 -1 -17 -5 -33 -8 -17 -2 -31 -5 -32 -6 -4 -3 -14 -6
-50 -15 -17 -4 -34 -13 -37 -21 -3 -8 -11 -14 -18 -14 -16 0 -99 -85 -91 -94
3 -3 -2 -8 -11 -12 -9 -3 -16 -14 -16 -23 0 -10 -3 -21 -7 -25 -8 -8 -14 -34
-14 -58 0 -10 -3 -18 -7 -18 -9 0 -8 -58 1 -67 4 -3 2 -12 -4 -20 -9 -10 -8
-13 0 -13 8 0 10 -8 6 -20 -4 -11 -2 -20 4 -20 6 0 11 -8 11 -18 0 -44 119
-182 157 -182 7 0 13 -5 13 -12 0 -6 3 -9 6 -5 4 3 18 0 33 -7 14 -7 32 -11
39 -9 6 3 12 0 12 -6 0 -6 5 -11 11 -11 5 0 7 5 3 12 -5 7 -3 8 6 3 19 -12
119 -14 126 -3 3 4 9 6 14 3 10 -6 65 11 114 37 40 21 126 98 110 98 -5 0 -4
4 2 8 17 11 46 71 39 82 -3 6 -1 10 5 10 7 0 10 32 9 100 -1 62 -5 100 -12
100 -6 0 -8 3 -4 6 8 9 -27 74 -60 109 -65 70 -165 115 -265 120 -32 1 -59 1
-60 -1z"/>
</g>
</svg>
